<?xml version="1.0" encoding="UTF-8"?>
<svg xmlns="http://www.w3.org/2000/svg" xmlns:xlink="http://www.w3.org/1999/xlink" width="24px" height="24px" viewBox="0 0 24 24" version="1.1">
<g id="surface1">
<path style=" stroke:none;fill-rule:nonzero;fill:rgb(0%,0%,0%);fill-opacity:1;" d="M 22.5 19.5 C 23.328125 19.5 24 20.171875 24 21 C 24 21.828125 23.328125 22.5 22.5 22.5 L 7.058594 22.5 C 6.265625 22.5 5.503906 22.1875 4.941406 21.625 L 1.1875 17.875 C 0.0195312 16.703125 0.0195312 14.796875 1.1875 13.625 L 12.125 2.6875 C 13.296875 1.519531 15.203125 1.519531 16.375 2.6875 L 22.808594 9.125 C 23.980469 10.296875 23.980469 12.203125 22.808594 13.375 L 16.683594 19.5 Z M 12.441406 19.5 L 15.59375 16.34375 L 9.15625 9.90625 L 3.3125 15.75 L 7.058594 19.5 Z M 12.441406 19.5 "/>
</g>
</svg>
