<?xml version="1.0" encoding="UTF-8"?>
<svg xmlns="http://www.w3.org/2000/svg" xmlns:xlink="http://www.w3.org/1999/xlink" width="24px" height="24px" viewBox="0 0 24 24" version="1.1">
<g id="surface1">
<path style=" stroke:none;fill-rule:nonzero;fill:rgb(0%,0%,0%);fill-opacity:1;" d="M 17.269531 0.859375 C 18.296875 -0.164062 19.953125 -0.164062 20.980469 0.859375 L 23.140625 3.019531 C 24.164062 4.042969 24.164062 5.703125 23.140625 6.730469 L 20.527344 9.34375 L 14.65625 3.472656 Z M 19.566406 10.5 L 17.410156 17.6875 C 17.128906 18.617188 16.414062 19.359375 15.492188 19.667969 L 3.101562 23.820312 C 2.570312 24 1.984375 23.867188 1.582031 23.480469 L 8.78125 16.28125 C 9.074219 16.421875 9.402344 16.5 9.707031 16.5 C 10.992188 16.5 11.957031 15.492188 11.957031 14.25 C 11.957031 13.007812 10.992188 12 9.707031 12 C 8.507812 12 7.457031 13.007812 7.457031 14.25 C 7.457031 14.597656 7.578125 14.925781 7.71875 15.21875 L 0.519531 22.421875 C 0.132812 22.015625 0 21.429688 0.175781 20.898438 L 4.332031 8.507812 C 4.597656 7.585938 5.382812 6.871094 6.3125 6.589844 L 13.457031 4.433594 Z M 19.566406 10.5 "/>
</g>
</svg>
